<svg width="20" height="19" viewBox="0 0 20 19" fill="none" xmlns="http://www.w3.org/2000/svg">
<g clip-path="url(#clip0_1534_19492)">
<path d="M14.9971 0H4.90332C2.44393 0 0.450195 1.99373 0.450195 4.45312V14.5469C0.450195 17.0063 2.44393 19 4.90332 19H14.9971C17.4565 19 19.4502 17.0063 19.4502 14.5469V4.45312C19.4502 1.99373 17.4565 0 14.9971 0Z" fill="#F4F2ED"/>
<path d="M3.54037 15.0693H5.90186V9.33419L2.52832 6.80408V14.0573C2.52832 14.6172 2.98209 15.0693 3.54037 15.0693Z" fill="#4285F4"/>
<path d="M13.998 15.0695H16.3596C16.9196 15.0695 17.3717 14.6157 17.3717 14.0574V6.8042L13.998 9.33439" fill="#34A853"/>
<path d="M13.998 4.94859V9.33425L17.3717 6.80414V5.45454C17.3717 4.20299 15.9429 3.48945 14.9427 4.2401" fill="#FBBC04"/>
<path d="M5.90234 9.33398V4.94839L9.95061 7.98446L13.9989 4.94824V9.3339L9.95061 12.3702" fill="#EA4335"/>
<path d="M2.52832 5.45454V6.80399L5.90186 9.33418V4.94859L4.95728 4.2401C3.95532 3.48945 2.52832 4.20299 2.52832 5.45454Z" fill="#C5221F"/>
</g>
<defs>
<clipPath id="clip0_1534_19492">
<rect width="19" height="19" fill="white" transform="translate(0.450195)"/>
</clipPath>
</defs>
</svg>
