<svg width="18" height="22" viewBox="0 0 18 22" fill="none" xmlns="http://www.w3.org/2000/svg">
<path fill-rule="evenodd" clip-rule="evenodd" d="M1.3125 19.25H16.1875C16.4693 19.25 16.7395 19.3619 16.9388 19.5612C17.1381 19.7605 17.25 20.0307 17.25 20.3125C17.25 20.5943 17.1381 20.8645 16.9388 21.0638C16.7395 21.2631 16.4693 21.375 16.1875 21.375H1.3125C1.03071 21.375 0.760457 21.2631 0.561199 21.0638C0.361942 20.8645 0.25 20.5943 0.25 20.3125C0.25 20.0307 0.361942 19.7605 0.561199 19.5612C0.760457 19.3619 1.03071 19.25 1.3125 19.25ZM0.25 13.9375L10.875 3.3125L14.0625 6.5L3.4375 17.125H0.25V13.9375ZM11.9375 2.25L14.0625 0.125L17.25 3.3125L15.1239 5.43856L11.9375 2.25Z" fill="#606060"/>
</svg>
