<svg width="24" height="24" viewBox="0 0 24 24" fill="none" xmlns="http://www.w3.org/2000/svg">
<path d="M22.3125 0.75H7.3125C7.06386 0.75 6.8254 0.848772 6.64959 1.02459C6.47377 1.2004 6.375 1.43886 6.375 1.6875V6.375H1.6875C1.43886 6.375 1.2004 6.47377 1.02459 6.64959C0.848772 6.8254 0.75 7.06386 0.75 7.3125V22.3125C0.75 22.5611 0.848772 22.7996 1.02459 22.9754C1.2004 23.1512 1.43886 23.25 1.6875 23.25H16.6875C16.9361 23.25 17.1746 23.1512 17.3504 22.9754C17.5262 22.7996 17.625 22.5611 17.625 22.3125V17.625H22.3125C22.5611 17.625 22.7996 17.5262 22.9754 17.3504C23.1512 17.1746 23.25 16.9361 23.25 16.6875V1.6875C23.25 1.43886 23.1512 1.2004 22.9754 1.02459C22.7996 0.848772 22.5611 0.75 22.3125 0.75ZM15.75 21.375H2.625V8.25H15.75V21.375ZM21.375 15.75H17.625V7.3125C17.625 7.06386 17.5262 6.8254 17.3504 6.64959C17.1746 6.47377 16.9361 6.375 16.6875 6.375H8.25V2.625H21.375V15.75Z" fill="#74788D"/>
</svg>
