<svg width="19" height="19" viewBox="0 0 19 19" fill="none" xmlns="http://www.w3.org/2000/svg">
<g clip-path="url(#clip0_1534_19500)">
<path d="M0.402025 9.38607C0.401583 10.9824 0.818699 12.5412 1.61184 13.9151L0.326172 18.6092L5.13008 17.3496C6.45877 18.073 7.94748 18.452 9.46031 18.4521H9.46429C14.4584 18.4521 18.5238 14.3882 18.5259 9.39321C18.5268 6.97278 17.5851 4.69675 15.8741 2.9844C14.1633 1.27219 11.8881 0.328741 9.46392 0.327637C4.4692 0.327637 0.40416 4.39128 0.402098 9.38607" fill="url(#paint0_linear_1534_19500)"/>
<path d="M0.0787985 9.38335C0.0782829 11.0372 0.510349 12.6516 1.33177 14.0747L0 18.9372L4.97616 17.6324C6.34725 18.38 7.89096 18.7741 9.46178 18.7747H9.46583C14.6391 18.7747 18.8505 14.5647 18.8527 9.39086C18.8536 6.88345 17.878 4.52561 16.1058 2.75191C14.3334 0.978426 11.9768 0.00103101 9.46583 0C4.29164 0 0.0808605 4.20946 0.0787985 9.38335ZM3.04228 13.8296L2.85648 13.5347C2.07542 12.2928 1.66316 10.8576 1.66375 9.38394C1.66537 5.08353 5.1652 1.58481 9.46877 1.58481C11.5529 1.58569 13.5115 2.39812 14.9847 3.87217C16.4578 5.34636 17.2683 7.30602 17.2678 9.39027C17.2659 13.6907 13.766 17.1898 9.46583 17.1898H9.46274C8.06255 17.1891 6.68933 16.8131 5.49174 16.1025L5.20674 15.9335L2.25378 16.7077L3.04228 13.8296Z" fill="url(#paint1_linear_1534_19500)"/>
<path d="M7.11989 5.46052C6.94418 5.06999 6.75926 5.06211 6.59216 5.05526C6.45534 5.04937 6.29892 5.04981 6.14265 5.04981C5.98623 5.04981 5.73208 5.10865 5.51727 5.34321C5.30223 5.57798 4.69629 6.14533 4.69629 7.29925C4.69629 8.45324 5.53678 9.56843 5.65395 9.72506C5.77126 9.88141 7.27653 12.3252 9.66052 13.2653C11.6418 14.0466 12.045 13.8912 12.475 13.852C12.9051 13.813 13.8628 13.2848 14.0581 12.7372C14.2537 12.1895 14.2537 11.7201 14.195 11.622C14.1364 11.5243 13.98 11.4656 13.7454 11.3484C13.5108 11.2311 12.3577 10.6637 12.1427 10.5854C11.9277 10.5072 11.7714 10.4681 11.6149 10.703C11.4585 10.9375 11.0094 11.4656 10.8725 11.622C10.7357 11.7788 10.5988 11.7983 10.3643 11.681C10.1296 11.5634 9.37427 11.316 8.4781 10.517C7.78084 9.89533 7.31011 9.1276 7.17329 8.89275C7.03646 8.65827 7.15863 8.53116 7.27624 8.41429C7.38162 8.3092 7.51087 8.14041 7.62825 8.0035C7.7452 7.86653 7.78423 7.7688 7.86244 7.61238C7.94072 7.45582 7.90154 7.31884 7.843 7.20153C7.78423 7.08421 7.32845 5.92425 7.11989 5.46052Z" fill="white"/>
</g>
<defs>
<linearGradient id="paint0_linear_1534_19500" x1="910.312" y1="1828.49" x2="910.312" y2="0.327637" gradientUnits="userSpaceOnUse">
<stop stop-color="#1FAF38"/>
<stop offset="1" stop-color="#60D669"/>
</linearGradient>
<linearGradient id="paint1_linear_1534_19500" x1="942.636" y1="1893.72" x2="942.636" y2="0" gradientUnits="userSpaceOnUse">
<stop stop-color="#F9F9F9"/>
<stop offset="1" stop-color="white"/>
</linearGradient>
<clipPath id="clip0_1534_19500">
<rect width="18.8527" height="19" fill="white"/>
</clipPath>
</defs>
</svg>
