<svg width="11" height="11" viewBox="0 0 11 11" fill="none" xmlns="http://www.w3.org/2000/svg">
<path d="M3.00565 8.01521H3.58163L7.53263 4.06421L6.95666 3.48823L3.00565 7.43923V8.01521ZM2.19727 8.8236V7.10577L7.53263 1.78051C7.61347 1.70641 7.7028 1.64914 7.80061 1.60872C7.89843 1.56831 8.00109 1.5481 8.10861 1.5481C8.21639 1.5481 8.32081 1.56831 8.42186 1.60872C8.52291 1.64914 8.61048 1.70977 8.68459 1.79061L9.24035 2.35648C9.32119 2.43059 9.38021 2.51816 9.41739 2.61921C9.45458 2.72026 9.47304 2.82131 9.47277 2.92236C9.47277 3.03014 9.45431 3.13294 9.41739 3.23076C9.38048 3.32857 9.32146 3.41776 9.24035 3.49833L3.91509 8.8236H2.19727ZM7.23959 3.78127L6.95666 3.48823L7.53263 4.06421L7.23959 3.78127Z" fill="#431282"/>
</svg>
