<svg width="6" height="11" viewBox="0 0 6 11" fill="none" xmlns="http://www.w3.org/2000/svg">
<path d="M3.79961 1.3375C3.79961 1.62917 3.69544 1.87917 3.48711 2.0875C3.27878 2.29583 3.02878 2.4 2.73711 2.4C2.44544 2.4 2.19544 2.29583 1.98711 2.0875C1.77878 1.87917 1.67461 1.62917 1.67461 1.3375C1.67461 1.0375 1.77878 0.783333 1.98711 0.575C2.19544 0.366667 2.44544 0.2625 2.73711 0.2625C3.02878 0.2625 3.27878 0.366667 3.48711 0.575C3.69544 0.783333 3.79961 1.0375 3.79961 1.3375ZM4.31211 3.3C4.27044 3.19167 4.20378 3.10417 4.11211 3.0375C4.02044 2.97083 3.91628 2.9375 3.79961 2.9375H1.67461C1.55794 2.9375 1.45378 2.97083 1.36211 3.0375C1.27044 3.10417 1.20378 3.19167 1.16211 3.3L0.0996094 6.5L1.04961 6.8125L0.599609 8.8H1.67461V10.9375H3.79961V8.8H4.87461L4.42461 6.8125L5.37461 6.5L4.31211 3.3Z" fill="#343A40"/>
</svg>
