<svg width="17" height="17" viewBox="0 0 17 17" fill="none" xmlns="http://www.w3.org/2000/svg">
<path d="M2.49564 10.9339C2.80107 10.9339 3.08806 10.8786 3.35662 10.7681C3.62519 10.6575 3.86479 10.5021 4.07542 10.302L8.29343 12.7191C8.27237 12.8139 8.25394 12.9087 8.23814 13.0034C8.22234 13.0982 8.21444 13.193 8.21444 13.2878C8.21444 13.9408 8.44615 14.499 8.90955 14.9624C9.37295 15.4258 9.93114 15.6575 10.5841 15.6575C11.2266 15.6575 11.7795 15.4258 12.2429 14.9624C12.7063 14.499 12.938 13.9408 12.938 13.2878C12.938 12.6454 12.7063 12.0924 12.2429 11.629C11.7795 11.1656 11.2266 10.9339 10.5841 10.9339C10.2787 10.9339 9.98906 10.9892 9.71523 11.0998C9.44141 11.2104 9.19917 11.3657 8.98854 11.5658L4.77053 9.14878C4.79159 9.06453 4.80739 8.98027 4.81792 8.89602C4.82845 8.81176 4.83898 8.72224 4.84952 8.62745L8.98854 6.25779C9.19917 6.45789 9.44141 6.61324 9.71523 6.72382C9.98906 6.8344 10.2787 6.8897 10.5841 6.8897C11.2266 6.8897 11.7795 6.658 12.2429 6.19459C12.7063 5.73119 12.938 5.17827 12.938 4.53583C12.938 3.88285 12.7063 3.32466 12.2429 2.86126C11.7795 2.39786 11.2266 2.16616 10.5841 2.16616C9.93114 2.16616 9.37295 2.39786 8.90955 2.86126C8.44615 3.32466 8.21444 3.88285 8.21444 4.53583C8.21444 4.63061 8.22234 4.7254 8.23814 4.82019C8.25394 4.91497 8.27237 5.00976 8.29343 5.10455L4.47037 7.30044C4.25973 6.97395 3.98064 6.71066 3.63309 6.51055C3.28553 6.31044 2.90639 6.21039 2.49564 6.21039C1.84267 6.21039 1.28448 6.44209 0.821079 6.90549C0.357677 7.3689 0.125977 7.92709 0.125977 8.58006C0.125977 9.2225 0.357677 9.77543 0.821079 10.2388C1.28448 10.7022 1.84267 10.9339 2.49564 10.9339ZM10.5841 12.2767C10.8579 12.2767 11.0949 12.3768 11.295 12.5769C11.4951 12.777 11.5952 13.014 11.5952 13.2878C11.5952 13.5722 11.4951 13.8118 11.295 14.0066C11.0949 14.2014 10.8579 14.2989 10.5841 14.2989C10.2998 14.2989 10.0602 14.2014 9.86531 14.0066C9.67047 13.8118 9.57305 13.5722 9.57305 13.2878C9.57305 13.014 9.67047 12.777 9.86531 12.5769C10.0602 12.3768 10.2998 12.2767 10.5841 12.2767ZM10.5841 3.52477C10.8579 3.52477 11.0949 3.62219 11.295 3.81703C11.4951 4.01187 11.5952 4.25147 11.5952 4.53583C11.5952 4.80966 11.4951 5.04662 11.295 5.24673C11.0949 5.44683 10.8579 5.54688 10.5841 5.54688C10.2998 5.54688 10.0602 5.44683 9.86531 5.24673C9.67047 5.04662 9.57305 4.80966 9.57305 4.53583C9.57305 4.25147 9.67047 4.01187 9.86531 3.81703C10.0602 3.62219 10.2998 3.52477 10.5841 3.52477ZM2.49564 7.569C2.76947 7.569 3.00644 7.66642 3.20655 7.86126C3.40665 8.0561 3.5067 8.2957 3.5067 8.58006C3.5067 8.85389 3.40665 9.09086 3.20655 9.29096C3.00644 9.49107 2.76947 9.59112 2.49564 9.59112C2.21128 9.59112 1.97168 9.49107 1.77685 9.29096C1.58201 9.09086 1.48459 8.85389 1.48459 8.58006C1.48459 8.2957 1.58201 8.0561 1.77685 7.86126C1.97168 7.66642 2.21128 7.569 2.49564 7.569Z" fill="white"/>
</svg>
