<svg width="13" height="13" viewBox="0 0 13 13" fill="none" xmlns="http://www.w3.org/2000/svg">
<path d="M6.5 8.66675C7.40513 8.66675 8.125 7.94579 8.125 7.04175C8.125 6.13771 7.40513 5.41675 6.5 5.41675C5.59488 5.41675 4.875 6.13771 4.875 7.04175C4.875 7.94579 5.59488 8.66675 6.5 8.66675Z" fill="#939BA2"/>
<path d="M11.2759 6.059C11.1482 5.43519 10.8988 4.84268 10.5419 4.31538C10.1912 3.79661 9.74443 3.34981 9.22567 2.99913C8.6983 2.64235 8.10581 2.39294 7.48204 2.26517C7.15439 2.19872 6.82078 2.16605 6.48646 2.16767V1.08325L4.33333 2.70825L6.48646 4.33325V3.251C6.74862 3.24992 7.01079 3.27484 7.26375 3.32684C7.74855 3.42618 8.20906 3.61999 8.619 3.89721C9.02329 4.1698 9.37124 4.51776 9.64383 4.92204C10.0671 5.54779 10.2927 6.28616 10.2917 7.04159C10.2916 7.54852 10.1903 8.05034 9.99375 8.51763C9.89817 8.74272 9.78136 8.95819 9.64492 9.16113C9.50793 9.36284 9.35233 9.55126 9.18017 9.72392C8.65583 10.2473 7.99019 10.6063 7.26483 10.7569C6.76039 10.8587 6.24069 10.8587 5.73625 10.7569C5.25122 10.6574 4.79052 10.4634 4.38046 10.186C3.97664 9.91361 3.62906 9.56603 3.35671 9.16221C2.93397 8.5358 2.70817 7.7973 2.70833 7.04159H1.625C1.62558 8.01317 1.91581 8.96252 2.45862 9.76834C2.80954 10.2862 3.25588 10.7326 3.77379 11.0835C4.5785 11.6281 5.52831 11.9184 6.5 11.9166C6.83002 11.9166 7.1592 11.8833 7.48258 11.8175C8.10589 11.6888 8.69803 11.4394 9.22567 11.0835C9.48473 10.9089 9.72619 10.7096 9.94662 10.4882C10.1674 10.2669 10.3668 10.0253 10.5425 9.76671C11.0866 8.96221 11.3767 8.01284 11.375 7.04159C11.375 6.71156 11.3418 6.38238 11.2759 6.059Z" fill="#939BA2"/>
</svg>
