<svg width="5" height="11" viewBox="0 0 5 11" fill="none" xmlns="http://www.w3.org/2000/svg">
<path d="M3.29961 1.3375C3.29961 1.62917 3.19544 1.87917 2.98711 2.0875C2.77878 2.29583 2.52878 2.4 2.23711 2.4C1.94544 2.4 1.69544 2.29583 1.48711 2.0875C1.27878 1.87917 1.17461 1.62917 1.17461 1.3375C1.17461 1.0375 1.27878 0.783333 1.48711 0.575C1.69544 0.366667 1.94544 0.2625 2.23711 0.2625C2.52878 0.2625 2.77878 0.366667 2.98711 0.575C3.19544 0.783333 3.29961 1.0375 3.29961 1.3375ZM3.83711 2.9375H0.637109C0.487109 2.9375 0.360026 2.98958 0.255859 3.09375C0.151693 3.19792 0.0996094 3.32083 0.0996094 3.4625V7.2H1.17461V10.9375H3.29961V7.2H4.37461V3.4625C4.37461 3.32083 4.32253 3.19792 4.21836 3.09375C4.11419 2.98958 3.98711 2.9375 3.83711 2.9375Z" fill="#343A40"/>
</svg>
