<svg width="15" height="15" viewBox="0 0 15 15" fill="none" xmlns="http://www.w3.org/2000/svg">
<path d="M7.41356 0.925503C6.47227 0.925503 5.58447 1.10734 4.75015 1.47102C3.91583 1.824 3.18847 2.31069 2.56808 2.93108C1.94769 3.55147 1.461 4.27883 1.10802 5.11315C0.744339 5.94747 0.5625 6.83528 0.5625 7.77656C0.5625 8.71784 0.744339 9.60565 1.10802 10.44C1.461 11.2636 1.94769 11.9856 2.56808 12.606C3.18847 13.2264 3.91583 13.7184 4.75015 14.0821C5.58447 14.4351 6.47227 14.6116 7.41356 14.6116C8.35484 14.6116 9.24264 14.4351 10.077 14.0821C10.9113 13.7184 11.636 13.2264 12.251 12.606C12.8661 11.9856 13.3554 11.2636 13.7191 10.44C14.0828 9.60565 14.2646 8.71784 14.2646 7.77656C14.2646 6.83528 14.0828 5.94747 13.7191 5.11315C13.3554 4.27883 12.8661 3.55147 12.251 2.93108C11.636 2.31069 10.9113 1.824 10.077 1.47102C9.24264 1.10734 8.35484 0.925503 7.41356 0.925503ZM7.41356 13.2478C6.65411 13.2478 5.9428 13.1034 5.27962 12.8146C4.61644 12.5258 4.03616 12.1354 3.53878 11.6433C3.0414 11.1513 2.6483 10.5683 2.3595 9.89445C2.08139 9.23127 1.94234 8.52531 1.94234 7.77656C1.94234 7.01711 2.08139 6.3058 2.3595 5.64262C2.6483 4.97945 3.0414 4.39917 3.53878 3.90178C4.03616 3.4044 4.61644 3.0113 5.27962 2.7225C5.9428 2.4337 6.65411 2.2893 7.41356 2.2893C8.173 2.2893 8.88431 2.4337 9.54749 2.7225C10.2107 3.0113 10.791 3.4044 11.2883 3.90178C11.7857 4.39917 12.1735 4.97945 12.4516 5.64262C12.7404 6.3058 12.8848 7.01711 12.8848 7.77656C12.8848 8.52531 12.7404 9.23127 12.4516 9.89445C12.1735 10.5683 11.7857 11.1513 11.2883 11.6433C10.791 12.1354 10.2107 12.5258 9.54749 12.8146C8.88431 13.1034 8.173 13.2478 7.41356 13.2478ZM7.41356 7.08664H4.66993V8.45043H7.41356V10.5202L10.1572 7.77656L7.41356 5.03293V7.08664Z" fill="#495057"/>
</svg>
